####
#
# OBJ File Generated by Meshlab
#
####
# Object RoundCut1.obj
#
# Vertices: 192
# Faces: 78
#
####
vn -0.601763 -0.758781 -0.249264
v -0.066261 -0.201639 -0.066267 0.749020 0.749020 0.749020
vn -0.601763 -0.758781 -0.249264
v -0.093712 -0.201639 0.000004 0.749020 0.749020 0.749020
vn -0.601411 -0.759108 -0.249119
v -0.000000 -0.275882 0.000000 0.749020 0.749020 0.749020
vn -0.602115 -0.758454 -0.249410
v -0.443805 0.136742 -0.183830 0.749020 0.749020 0.749020
vn -0.551801 -0.745525 -0.373775
v -0.066261 -0.201639 -0.066267 0.749020 0.749020 0.749020
vn -0.551801 -0.745525 -0.373775
v -0.339827 0.137989 -0.339819 0.749020 0.749020 0.749020
vn -0.551801 -0.745525 -0.373775
v -0.443805 0.136742 -0.183830 0.749020 0.749020 0.749020
vn -0.373682 -0.745510 -0.551885
v -0.066261 -0.201639 -0.066267 0.749020 0.749020 0.749020
vn -0.373682 -0.745510 -0.551885
v -0.183816 0.136742 -0.443770 0.749020 0.749020 0.749020
vn -0.373682 -0.745510 -0.551885
v -0.339827 0.137989 -0.339819 0.749020 0.749020 0.749020
vn -0.258810 0.930619 -0.258777
v -0.263017 0.229328 -0.263012 0.749020 0.749020 0.749020
vn -0.258810 0.930619 -0.258777
v -0.105040 0.275882 -0.253591 0.749020 0.749020 0.749020
vn -0.258810 0.930619 -0.258777
v -0.253577 0.275882 -0.105035 0.749020 0.749020 0.749020
vn -0.249268 -0.758770 -0.601775
v -0.000004 -0.201639 -0.093712 0.749020 0.749020 0.749020
vn -0.249268 -0.758770 -0.601775
v -0.066261 -0.201639 -0.066267 0.749020 0.749020 0.749020
vn -0.249112 -0.759119 -0.601399
v -0.000000 -0.275882 0.000000 0.749020 0.749020 0.749020
vn -0.249424 -0.758420 -0.602152
v -0.183816 0.136742 -0.443770 0.749020 0.749020 0.749020
vn -0.126007 -0.745509 -0.654476
v -0.000004 -0.201639 -0.093712 0.749020 0.749020 0.749020
vn -0.126007 -0.745509 -0.654476
v 0.000006 0.137989 -0.480582 0.749020 0.749020 0.749020
vn -0.126007 -0.745509 -0.654476
v -0.183816 0.136742 -0.443770 0.749020 0.749020 0.749020
vn 0.125883 -0.745524 -0.654482
v -0.000004 -0.201639 -0.093712 0.749020 0.749020 0.749020
vn 0.125883 -0.745524 -0.654482
v 0.183830 0.136742 -0.443805 0.749020 0.749020 0.749020
vn 0.125883 -0.745524 -0.654482
v 0.000006 0.137989 -0.480582 0.749020 0.749020 0.749020
vn -0.000000 0.930618 -0.365992
v 0.000003 0.229328 -0.371958 0.749020 0.749020 0.749020
vn -0.000000 0.930618 -0.365992
v 0.105035 0.275882 -0.253577 0.749020 0.749020 0.749020
vn -0.000000 0.930618 -0.365992
v -0.105040 0.275882 -0.253591 0.749020 0.749020 0.749020
vn 0.249264 -0.758781 -0.601763
v 0.066267 -0.201639 -0.066261 0.749020 0.749020 0.749020
vn 0.249264 -0.758781 -0.601763
v -0.000004 -0.201639 -0.093712 0.749020 0.749020 0.749020
vn 0.249119 -0.759108 -0.601411
v -0.000000 -0.275882 0.000000 0.749020 0.749020 0.749020
vn 0.249410 -0.758454 -0.602115
v 0.183830 0.136742 -0.443805 0.749020 0.749020 0.749020
vn 0.373775 -0.745525 -0.551801
v 0.066267 -0.201639 -0.066261 0.749020 0.749020 0.749020
vn 0.373775 -0.745525 -0.551801
v 0.339819 0.137989 -0.339827 0.749020 0.749020 0.749020
vn 0.373775 -0.745525 -0.551801
v 0.183830 0.136742 -0.443805 0.749020 0.749020 0.749020
vn 0.551885 -0.745510 -0.373682
v 0.066267 -0.201639 -0.066261 0.749020 0.749020 0.749020
vn 0.551885 -0.745510 -0.373682
v 0.443770 0.136742 -0.183816 0.749020 0.749020 0.749020
vn 0.551885 -0.745510 -0.373682
v 0.339819 0.137989 -0.339827 0.749020 0.749020 0.749020
vn 0.258777 0.930619 -0.258810
v 0.263012 0.229328 -0.263017 0.749020 0.749020 0.749020
vn 0.258777 0.930619 -0.258810
v 0.253591 0.275882 -0.105040 0.749020 0.749020 0.749020
vn 0.258777 0.930619 -0.258810
v 0.105035 0.275882 -0.253577 0.749020 0.749020 0.749020
vn 0.601775 -0.758770 -0.249268
v 0.093712 -0.201639 -0.000004 0.749020 0.749020 0.749020
vn 0.601775 -0.758770 -0.249268
v 0.066267 -0.201639 -0.066261 0.749020 0.749020 0.749020
vn 0.601399 -0.759119 -0.249112
v -0.000000 -0.275882 0.000000 0.749020 0.749020 0.749020
vn 0.602152 -0.758420 -0.249424
v 0.443770 0.136742 -0.183816 0.749020 0.749020 0.749020
vn 0.654476 -0.745509 -0.126007
v 0.093712 -0.201639 -0.000004 0.749020 0.749020 0.749020
vn 0.654476 -0.745509 -0.126007
v 0.480582 0.137989 0.000006 0.749020 0.749020 0.749020
vn 0.654476 -0.745509 -0.126007
v 0.443770 0.136742 -0.183816 0.749020 0.749020 0.749020
vn 0.654482 -0.745524 0.125883
v 0.093712 -0.201639 -0.000004 0.749020 0.749020 0.749020
vn 0.654482 -0.745524 0.125883
v 0.443805 0.136742 0.183830 0.749020 0.749020 0.749020
vn 0.654482 -0.745524 0.125883
v 0.480582 0.137989 0.000006 0.749020 0.749020 0.749020
vn 0.365992 0.930618 0.000000
v 0.371958 0.229328 0.000003 0.749020 0.749020 0.749020
vn 0.365992 0.930618 0.000000
v 0.253577 0.275882 0.105035 0.749020 0.749020 0.749020
vn 0.365992 0.930618 0.000000
v 0.253591 0.275882 -0.105040 0.749020 0.749020 0.749020
vn 0.601763 -0.758781 0.249264
v 0.066261 -0.201639 0.066267 0.749020 0.749020 0.749020
vn 0.601763 -0.758781 0.249264
v 0.093712 -0.201639 -0.000004 0.749020 0.749020 0.749020
vn 0.601411 -0.759108 0.249119
v -0.000000 -0.275882 0.000000 0.749020 0.749020 0.749020
vn 0.602115 -0.758454 0.249410
v 0.443805 0.136742 0.183830 0.749020 0.749020 0.749020
vn 0.551801 -0.745525 0.373775
v 0.066261 -0.201639 0.066267 0.749020 0.749020 0.749020
vn 0.551801 -0.745525 0.373775
v 0.339827 0.137989 0.339819 0.749020 0.749020 0.749020
vn 0.551801 -0.745525 0.373775
v 0.443805 0.136742 0.183830 0.749020 0.749020 0.749020
vn 0.373682 -0.745510 0.551885
v 0.066261 -0.201639 0.066267 0.749020 0.749020 0.749020
vn 0.373682 -0.745510 0.551885
v 0.183816 0.136742 0.443770 0.749020 0.749020 0.749020
vn 0.373682 -0.745510 0.551885
v 0.339827 0.137989 0.339819 0.749020 0.749020 0.749020
vn 0.258677 0.930651 0.258795
v 0.263017 0.229328 0.263012 0.749020 0.749020 0.749020
vn 0.258677 0.930651 0.258795
v 0.105035 0.275863 0.253578 0.749020 0.749020 0.749020
vn 0.258677 0.930651 0.258795
v 0.253577 0.275882 0.105035 0.749020 0.749020 0.749020
vn 0.249268 -0.758770 0.601775
v 0.000004 -0.201639 0.093712 0.749020 0.749020 0.749020
vn 0.249268 -0.758770 0.601775
v 0.066261 -0.201639 0.066267 0.749020 0.749020 0.749020
vn 0.249112 -0.759119 0.601399
v -0.000000 -0.275882 0.000000 0.749020 0.749020 0.749020
vn 0.249424 -0.758420 0.602152
v 0.183816 0.136742 0.443770 0.749020 0.749020 0.749020
vn 0.126007 -0.745509 0.654476
v 0.000004 -0.201639 0.093712 0.749020 0.749020 0.749020
vn 0.126007 -0.745509 0.654476
v -0.000006 0.137989 0.480582 0.749020 0.749020 0.749020
vn 0.126007 -0.745509 0.654476
v 0.183816 0.136742 0.443770 0.749020 0.749020 0.749020
vn -0.125883 -0.745524 0.654482
v 0.000004 -0.201639 0.093712 0.749020 0.749020 0.749020
vn -0.125883 -0.745524 0.654482
v -0.183830 0.136742 0.443805 0.749020 0.749020 0.749020
vn -0.125883 -0.745524 0.654482
v -0.000006 0.137989 0.480582 0.749020 0.749020 0.749020
vn -0.000000 0.930650 0.365910
v -0.000003 0.229328 0.371958 0.749020 0.749020 0.749020
vn -0.000000 0.930650 0.365910
v -0.105035 0.275882 0.253577 0.749020 0.749020 0.749020
vn -0.000000 0.930650 0.365910
v 0.105035 0.275863 0.253578 0.749020 0.749020 0.749020
vn -0.249264 -0.758781 0.601763
v -0.066267 -0.201639 0.066261 0.749020 0.749020 0.749020
vn -0.249264 -0.758781 0.601763
v 0.000004 -0.201639 0.093712 0.749020 0.749020 0.749020
vn -0.249119 -0.759108 0.601411
v -0.000000 -0.275882 0.000000 0.749020 0.749020 0.749020
vn -0.249410 -0.758454 0.602115
v -0.183830 0.136742 0.443805 0.749020 0.749020 0.749020
vn -0.373775 -0.745525 0.551801
v -0.066267 -0.201639 0.066261 0.749020 0.749020 0.749020
vn -0.373775 -0.745525 0.551801
v -0.339819 0.137989 0.339827 0.749020 0.749020 0.749020
vn -0.373775 -0.745525 0.551801
v -0.183830 0.136742 0.443805 0.749020 0.749020 0.749020
vn -0.551885 -0.745510 0.373682
v -0.066267 -0.201639 0.066261 0.749020 0.749020 0.749020
vn -0.551885 -0.745510 0.373682
v -0.443770 0.136742 0.183816 0.749020 0.749020 0.749020
vn -0.551885 -0.745510 0.373682
v -0.339819 0.137989 0.339827 0.749020 0.749020 0.749020
vn -0.258777 0.930619 0.258810
v -0.263012 0.229328 0.263017 0.749020 0.749020 0.749020
vn -0.258777 0.930619 0.258810
v -0.253591 0.275882 0.105040 0.749020 0.749020 0.749020
vn -0.258777 0.930619 0.258810
v -0.105035 0.275882 0.253577 0.749020 0.749020 0.749020
vn -0.601775 -0.758770 0.249268
v -0.093712 -0.201639 0.000004 0.749020 0.749020 0.749020
vn -0.601775 -0.758770 0.249268
v -0.066267 -0.201639 0.066261 0.749020 0.749020 0.749020
vn -0.601399 -0.759119 0.249112
v -0.000000 -0.275882 0.000000 0.749020 0.749020 0.749020
vn -0.602152 -0.758420 0.249424
v -0.443770 0.136742 0.183816 0.749020 0.749020 0.749020
vn -0.654476 -0.745509 0.126007
v -0.093712 -0.201639 0.000004 0.749020 0.749020 0.749020
vn -0.654476 -0.745509 0.126007
v -0.480582 0.137989 -0.000006 0.749020 0.749020 0.749020
vn -0.654476 -0.745509 0.126007
v -0.443770 0.136742 0.183816 0.749020 0.749020 0.749020
vn -0.654482 -0.745524 -0.125883
v -0.093712 -0.201639 0.000004 0.749020 0.749020 0.749020
vn -0.654482 -0.745524 -0.125883
v -0.443805 0.136742 -0.183830 0.749020 0.749020 0.749020
vn -0.654482 -0.745524 -0.125883
v -0.480582 0.137989 -0.000006 0.749020 0.749020 0.749020
vn -0.365992 0.930618 0.000000
v -0.371958 0.229328 -0.000003 0.749020 0.749020 0.749020
vn -0.365992 0.930618 0.000000
v -0.253577 0.275882 -0.105035 0.749020 0.749020 0.749020
vn -0.365992 0.930618 0.000000
v -0.253591 0.275882 0.105040 0.749020 0.749020 0.749020
vn -0.637878 0.758586 0.132887
v -0.443770 0.136742 0.183816 0.749020 0.749020 0.749020
vn -0.637878 0.758586 0.132887
v -0.480582 0.137989 -0.000006 0.749020 0.749020 0.749020
vn -0.637878 0.758586 0.132887
v -0.371958 0.229328 -0.000003 0.749020 0.749020 0.749020
vn -0.637884 0.758602 -0.132765
v -0.371958 0.229328 -0.000003 0.749020 0.749020 0.749020
vn -0.637884 0.758602 -0.132765
v -0.480582 0.137989 -0.000006 0.749020 0.749020 0.749020
vn -0.637884 0.758602 -0.132765
v -0.443805 0.136742 -0.183830 0.749020 0.749020 0.749020
vn -0.545014 0.758585 0.357082
v -0.339819 0.137989 0.339827 0.749020 0.749020 0.749020
vn -0.545014 0.758585 0.357082
v -0.443770 0.136742 0.183816 0.749020 0.749020 0.749020
vn -0.545014 0.758585 0.357082
v -0.263012 0.229328 0.263017 0.749020 0.749020 0.749020
vn -0.357173 0.758600 0.544934
v -0.339819 0.137989 0.339827 0.749020 0.749020 0.749020
vn -0.357173 0.758600 0.544934
v -0.263012 0.229328 0.263017 0.749020 0.749020 0.749020
vn -0.357173 0.758600 0.544934
v -0.183830 0.136742 0.443805 0.749020 0.749020 0.749020
vn 0.132887 0.758586 0.637878
v 0.183816 0.136742 0.443770 0.749020 0.749020 0.749020
vn 0.132887 0.758586 0.637878
v -0.000006 0.137989 0.480582 0.749020 0.749020 0.749020
vn 0.132887 0.758586 0.637878
v -0.000003 0.229328 0.371958 0.749020 0.749020 0.749020
vn -0.132765 0.758602 0.637884
v -0.000003 0.229328 0.371958 0.749020 0.749020 0.749020
vn -0.132765 0.758602 0.637884
v -0.000006 0.137989 0.480582 0.749020 0.749020 0.749020
vn -0.132765 0.758602 0.637884
v -0.183830 0.136742 0.443805 0.749020 0.749020 0.749020
vn 0.357082 0.758585 0.545014
v 0.339827 0.137989 0.339819 0.749020 0.749020 0.749020
vn 0.357082 0.758585 0.545014
v 0.183816 0.136742 0.443770 0.749020 0.749020 0.749020
vn 0.357082 0.758585 0.545014
v 0.263017 0.229328 0.263012 0.749020 0.749020 0.749020
vn 0.544934 0.758600 0.357173
v 0.339827 0.137989 0.339819 0.749020 0.749020 0.749020
vn 0.544934 0.758600 0.357173
v 0.263017 0.229328 0.263012 0.749020 0.749020 0.749020
vn 0.544934 0.758600 0.357173
v 0.443805 0.136742 0.183830 0.749020 0.749020 0.749020
vn 0.637878 0.758586 -0.132887
v 0.443770 0.136742 -0.183816 0.749020 0.749020 0.749020
vn 0.637878 0.758586 -0.132887
v 0.480582 0.137989 0.000006 0.749020 0.749020 0.749020
vn 0.637878 0.758586 -0.132887
v 0.371958 0.229328 0.000003 0.749020 0.749020 0.749020
vn 0.637884 0.758602 0.132765
v 0.480582 0.137989 0.000006 0.749020 0.749020 0.749020
vn 0.637884 0.758602 0.132765
v 0.443805 0.136742 0.183830 0.749020 0.749020 0.749020
vn 0.637884 0.758602 0.132765
v 0.371958 0.229328 0.000003 0.749020 0.749020 0.749020
vn 0.545014 0.758585 -0.357082
v 0.339819 0.137989 -0.339827 0.749020 0.749020 0.749020
vn 0.545014 0.758585 -0.357082
v 0.443770 0.136742 -0.183816 0.749020 0.749020 0.749020
vn 0.545014 0.758585 -0.357082
v 0.263012 0.229328 -0.263017 0.749020 0.749020 0.749020
vn 0.357173 0.758600 -0.544934
v 0.339819 0.137989 -0.339827 0.749020 0.749020 0.749020
vn 0.357173 0.758600 -0.544934
v 0.263012 0.229328 -0.263017 0.749020 0.749020 0.749020
vn 0.357173 0.758600 -0.544934
v 0.183830 0.136742 -0.443805 0.749020 0.749020 0.749020
vn 0.132765 0.758602 -0.637884
v 0.183830 0.136742 -0.443805 0.749020 0.749020 0.749020
vn 0.132765 0.758602 -0.637884
v 0.000003 0.229328 -0.371958 0.749020 0.749020 0.749020
vn 0.132765 0.758602 -0.637884
v 0.000006 0.137989 -0.480582 0.749020 0.749020 0.749020
vn -0.132887 0.758586 -0.637878
v 0.000006 0.137989 -0.480582 0.749020 0.749020 0.749020
vn -0.132887 0.758586 -0.637878
v 0.000003 0.229328 -0.371958 0.749020 0.749020 0.749020
vn -0.132887 0.758586 -0.637878
v -0.183816 0.136742 -0.443770 0.749020 0.749020 0.749020
vn -0.357082 0.758585 -0.545014
v -0.339827 0.137989 -0.339819 0.749020 0.749020 0.749020
vn -0.357082 0.758585 -0.545014
v -0.183816 0.136742 -0.443770 0.749020 0.749020 0.749020
vn -0.357082 0.758585 -0.545014
v -0.263017 0.229328 -0.263012 0.749020 0.749020 0.749020
vn -0.544934 0.758600 -0.357173
v -0.339827 0.137989 -0.339819 0.749020 0.749020 0.749020
vn -0.544934 0.758600 -0.357173
v -0.263017 0.229328 -0.263012 0.749020 0.749020 0.749020
vn -0.544934 0.758600 -0.357173
v -0.443805 0.136742 -0.183830 0.749020 0.749020 0.749020
vn -0.214115 0.828821 0.516924
v -0.000003 0.229328 0.371958 0.749020 0.749020 0.749020
vn -0.214571 0.828015 0.518026
v -0.183830 0.136742 0.443805 0.749020 0.749020 0.749020
vn -0.214115 0.828821 0.516924
v -0.263012 0.229328 0.263017 0.749020 0.749020 0.749020
vn -0.213658 0.829626 0.515821
v -0.105035 0.275882 0.253577 0.749020 0.749020 0.749020
vn -0.515909 0.829561 0.213696
v -0.253591 0.275882 0.105040 0.749020 0.749020 0.749020
vn -0.517013 0.828755 0.214153
v -0.263012 0.229328 0.263017 0.749020 0.749020 0.749020
vn -0.517013 0.828755 0.214153
v -0.371958 0.229328 -0.000003 0.749020 0.749020 0.749020
vn -0.518117 0.827948 0.214610
v -0.443770 0.136742 0.183816 0.749020 0.749020 0.749020
vn -0.516924 0.828821 -0.214115
v -0.371958 0.229328 -0.000003 0.749020 0.749020 0.749020
vn -0.518026 0.828015 -0.214571
v -0.443805 0.136742 -0.183830 0.749020 0.749020 0.749020
vn -0.516924 0.828821 -0.214115
v -0.263017 0.229328 -0.263012 0.749020 0.749020 0.749020
vn -0.515821 0.829626 -0.213658
v -0.253577 0.275882 -0.105035 0.749020 0.749020 0.749020
vn -0.213696 0.829561 -0.515909
v -0.105040 0.275882 -0.253591 0.749020 0.749020 0.749020
vn -0.214153 0.828755 -0.517013
v -0.263017 0.229328 -0.263012 0.749020 0.749020 0.749020
vn -0.214153 0.828755 -0.517013
v 0.000003 0.229328 -0.371958 0.749020 0.749020 0.749020
vn -0.214610 0.827948 -0.518117
v -0.183816 0.136742 -0.443770 0.749020 0.749020 0.749020
vn 0.213658 0.829626 -0.515821
v 0.105035 0.275882 -0.253577 0.749020 0.749020 0.749020
vn 0.214115 0.828821 -0.516924
v 0.000003 0.229328 -0.371958 0.749020 0.749020 0.749020
vn 0.214115 0.828821 -0.516924
v 0.263012 0.229328 -0.263017 0.749020 0.749020 0.749020
vn 0.214571 0.828015 -0.518026
v 0.183830 0.136742 -0.443805 0.749020 0.749020 0.749020
vn 0.515909 0.829561 -0.213696
v 0.253591 0.275882 -0.105040 0.749020 0.749020 0.749020
vn 0.517013 0.828755 -0.214153
v 0.263012 0.229328 -0.263017 0.749020 0.749020 0.749020
vn 0.517013 0.828755 -0.214153
v 0.371958 0.229328 0.000003 0.749020 0.749020 0.749020
vn 0.518117 0.827948 -0.214610
v 0.443770 0.136742 -0.183816 0.749020 0.749020 0.749020
vn 0.516924 0.828821 0.214115
v 0.263017 0.229328 0.263012 0.749020 0.749020 0.749020
vn 0.516924 0.828821 0.214115
v 0.371958 0.229328 0.000003 0.749020 0.749020 0.749020
vn 0.518026 0.828015 0.214571
v 0.443805 0.136742 0.183830 0.749020 0.749020 0.749020
vn 0.515821 0.829626 0.213658
v 0.253577 0.275882 0.105035 0.749020 0.749020 0.749020
vn 0.213606 0.829719 0.515693
v 0.105035 0.275863 0.253578 0.749020 0.749020 0.749020
vn 0.214108 0.828834 0.516905
v 0.263017 0.229328 0.263012 0.749020 0.749020 0.749020
vn 0.214108 0.828834 0.516905
v -0.000003 0.229328 0.371958 0.749020 0.749020 0.749020
vn 0.214610 0.827948 0.518117
v 0.183816 0.136742 0.443770 0.749020 0.749020 0.749020
vn -0.000000 1.000000 0.000000
v 0.253591 0.275882 -0.105040 0.749020 0.749020 0.749020
vn -0.000000 1.000000 0.000000
v 0.253577 0.275882 0.105035 0.749020 0.749020 0.749020
vn -0.000000 1.000000 0.000000
v 0.105035 0.275863 0.253578 0.749020 0.749020 0.749020
vn -0.000000 1.000000 0.000000
v -0.253591 0.275882 0.105040 0.749020 0.749020 0.749020
vn -0.000000 1.000000 0.000000
v -0.105040 0.275882 -0.253591 0.749020 0.749020 0.749020
vn -0.000000 1.000000 0.000000
v -0.253577 0.275882 -0.105035 0.749020 0.749020 0.749020
vn -0.000000 1.000000 0.000000
v 0.105035 0.275882 -0.253577 0.749020 0.749020 0.749020
vn -0.000000 1.000000 0.000000
v -0.105035 0.275882 0.253577 0.749020 0.749020 0.749020
# 192 vertices, 0 vertices normals

f 3//3 2//2 1//1
f 2//2 4//4 1//1
f 7//7 6//6 5//5
f 10//10 9//9 8//8
f 13//13 12//12 11//11
f 16//16 15//15 14//14
f 15//15 17//17 14//14
f 20//20 19//19 18//18
f 23//23 22//22 21//21
f 26//26 25//25 24//24
f 29//29 28//28 27//27
f 28//28 30//30 27//27
f 33//33 32//32 31//31
f 36//36 35//35 34//34
f 39//39 38//38 37//37
f 42//42 41//41 40//40
f 41//41 43//43 40//40
f 46//46 45//45 44//44
f 49//49 48//48 47//47
f 52//52 51//51 50//50
f 55//55 54//54 53//53
f 54//54 56//56 53//53
f 59//59 58//58 57//57
f 62//62 61//61 60//60
f 65//65 64//64 63//63
f 68//68 67//67 66//66
f 67//67 69//69 66//66
f 72//72 71//71 70//70
f 75//75 74//74 73//73
f 78//78 77//77 76//76
f 81//81 80//80 79//79
f 80//80 82//82 79//79
f 85//85 84//84 83//83
f 88//88 87//87 86//86
f 91//91 90//90 89//89
f 94//94 93//93 92//92
f 93//93 95//95 92//92
f 98//98 97//97 96//96
f 101//101 100//100 99//99
f 104//104 103//103 102//102
f 107//107 106//106 105//105
f 110//110 109//109 108//108
f 113//113 112//112 111//111
f 116//116 115//115 114//114
f 119//119 118//118 117//117
f 122//122 121//121 120//120
f 125//125 124//124 123//123
f 128//128 127//127 126//126
f 131//131 130//130 129//129
f 134//134 133//133 132//132
f 137//137 136//136 135//135
f 140//140 139//139 138//138
f 143//143 142//142 141//141
f 146//146 145//145 144//144
f 149//149 148//148 147//147
f 152//152 151//151 150//150
f 155//155 154//154 153//153
f 156//156 155//155 153//153
f 159//159 158//158 157//157
f 159//159 160//160 158//158
f 163//163 162//162 161//161
f 164//164 163//163 161//161
f 167//167 166//166 165//165
f 166//166 167//167 168//168
f 171//171 170//170 169//169
f 172//172 170//170 171//171
f 175//175 174//174 173//173
f 176//176 174//174 175//175
f 179//179 178//178 177//177
f 180//180 177//177 178//178
f 183//183 182//182 181//181
f 184//184 182//182 183//183
f 187//187 186//186 185//185
f 187//187 185//185 188//188
f 185//185 189//189 188//188
f 188//188 189//189 190//190
f 191//191 189//189 185//185
f 192//192 187//187 188//188
# 78 faces, 0 coords texture

# End of File
